<svg width="76" height="17" viewBox="0 0 76 17" fill="none" xmlns="http://www.w3.org/2000/svg">
<path d="M11.0742 9.38281C11.0742 10.4714 10.7913 11.3057 10.2256 11.8857C9.66699 12.4658 8.88281 12.7559 7.87305 12.7559C6.8418 12.7559 6.01107 12.3727 5.38086 11.6064C4.75065 10.833 4.43555 9.81608 4.43555 8.55566V7.75C4.43555 6.51107 4.75423 5.50846 5.3916 4.74219C6.02897 3.97591 6.85612 3.59277 7.87305 3.59277C8.89714 3.59277 9.68848 3.88997 10.2471 4.48438C10.8057 5.07161 11.085 5.89518 11.085 6.95508H10.5264C10.5264 6.01693 10.2972 5.31868 9.83887 4.86035C9.38053 4.39486 8.72526 4.16211 7.87305 4.16211C7.02083 4.16211 6.33333 4.49154 5.81055 5.15039C5.28776 5.80924 5.02637 6.69368 5.02637 7.80371V8.59863C5.02637 9.66569 5.28418 10.5286 5.7998 11.1875C6.32259 11.8392 7.01367 12.165 7.87305 12.165C9.63477 12.165 10.5156 11.2376 10.5156 9.38281H11.0742ZM0.922852 8.16895C0.922852 9.5153 1.23796 10.7686 1.86816 11.9287C2.50553 13.0817 3.36491 13.9876 4.44629 14.6465C5.53483 15.3053 6.70215 15.6348 7.94824 15.6348C9.20866 15.6348 10.3831 15.2982 11.4717 14.625C12.5602 13.9518 13.416 13.0423 14.0391 11.8965C14.6621 10.7435 14.9736 9.50098 14.9736 8.16895C14.9736 6.82975 14.6621 5.59082 14.0391 4.45215C13.416 3.30632 12.5566 2.40039 11.4609 1.73438C10.3724 1.06836 9.2015 0.735352 7.94824 0.735352C6.70931 0.735352 5.54557 1.0612 4.45703 1.71289C3.36849 2.36458 2.50553 3.26693 1.86816 4.41992C1.23796 5.56576 0.922852 6.81543 0.922852 8.16895ZM0.321289 8.16895C0.321289 6.72233 0.654297 5.37956 1.32031 4.14062C1.99349 2.90169 2.9209 1.92773 4.10254 1.21875C5.29134 0.502604 6.57324 0.144531 7.94824 0.144531C9.32324 0.144531 10.6016 0.502604 11.7832 1.21875C12.972 1.92773 13.8994 2.90169 14.5654 4.14062C15.2386 5.37956 15.5752 6.72233 15.5752 8.16895C15.5752 9.59408 15.2493 10.9225 14.5977 12.1543C13.946 13.3861 13.0257 14.3743 11.8369 15.1191C10.6553 15.8568 9.35905 16.2256 7.94824 16.2256C6.53743 16.2256 5.23763 15.8568 4.04883 15.1191C2.86719 14.3743 1.95052 13.3861 1.29883 12.1543C0.647135 10.9225 0.321289 9.59408 0.321289 8.16895ZM37.1602 16H27.8037V15.4199L33.1426 9.26465C34.0163 8.24056 34.6644 7.33105 35.0869 6.53613C35.5166 5.74121 35.7314 5.01074 35.7314 4.34473C35.7314 3.19889 35.3984 2.31087 34.7324 1.68066C34.0664 1.04329 33.1283 0.724609 31.918 0.724609C31.1875 0.724609 30.5215 0.900065 29.9199 1.25098C29.3184 1.60189 28.8457 2.08887 28.502 2.71191C28.1654 3.3278 27.9971 4.0153 27.9971 4.77441H27.417C27.417 3.93652 27.6104 3.15951 27.9971 2.44336C28.3838 1.72721 28.9209 1.16504 29.6084 0.756836C30.2959 0.348633 31.0658 0.144531 31.918 0.144531C33.3073 0.144531 34.3887 0.513346 35.1621 1.25098C35.9355 1.98861 36.3223 3.01986 36.3223 4.34473C36.3223 5.56217 35.6383 7.01953 34.2705 8.7168L33.293 9.90918L28.5664 15.4199H37.1602V16ZM50.9121 9.61914C50.9121 11.7174 50.5039 13.3431 49.6875 14.4961C48.8711 15.6419 47.7253 16.2148 46.25 16.2148C44.7819 16.2148 43.6325 15.6348 42.8018 14.4746C41.971 13.3145 41.5557 11.6816 41.5557 9.57617V6.74023C41.5557 4.66341 41.9639 3.04492 42.7803 1.88477C43.6038 0.717448 44.7533 0.133789 46.2285 0.133789C47.7109 0.133789 48.8604 0.717448 49.6768 1.88477C50.5003 3.04492 50.9121 4.67773 50.9121 6.7832V9.61914ZM50.332 6.74023C50.332 4.84245 49.974 3.36361 49.2578 2.30371C48.5488 1.24382 47.5391 0.713867 46.2285 0.713867C44.9108 0.713867 43.8975 1.2474 43.1885 2.31445C42.4867 3.37435 42.1357 4.86751 42.1357 6.79395V9.59766C42.1357 11.4883 42.4974 12.9671 43.2207 14.0342C43.944 15.1012 44.9538 15.6348 46.25 15.6348C47.5534 15.6348 48.5596 15.1012 49.2686 14.0342C49.9775 12.9671 50.332 11.4704 50.332 9.54395V6.74023ZM65.2656 16H55.9092V15.4199L61.248 9.26465C62.1217 8.24056 62.7699 7.33105 63.1924 6.53613C63.6221 5.74121 63.8369 5.01074 63.8369 4.34473C63.8369 3.19889 63.5039 2.31087 62.8379 1.68066C62.1719 1.04329 61.2337 0.724609 60.0234 0.724609C59.293 0.724609 58.627 0.900065 58.0254 1.25098C57.4238 1.60189 56.9512 2.08887 56.6074 2.71191C56.2708 3.3278 56.1025 4.0153 56.1025 4.77441H55.5225C55.5225 3.93652 55.7158 3.15951 56.1025 2.44336C56.4893 1.72721 57.0264 1.16504 57.7139 0.756836C58.4014 0.348633 59.1712 0.144531 60.0234 0.144531C61.4128 0.144531 62.4941 0.513346 63.2676 1.25098C64.041 1.98861 64.4277 3.01986 64.4277 4.34473C64.4277 5.56217 63.7438 7.01953 62.376 8.7168L61.3984 9.90918L56.6719 15.4199H65.2656V16ZM75.3975 16H74.8174V1.08984L70.3271 2.77637V2.14258L75.2793 0.316406H75.3975V16Z" fill="white"/>
</svg>
