<svg width="48" height="48" viewBox="0 0 48 48" fill="none" xmlns="http://www.w3.org/2000/svg">
<g filter="url(#filter0_d)">
<rect x="0.5" y="0.5" width="47" height="47" rx="23.5" stroke="#9D8665"/>
</g>
<path d="M21.53 27.38V28.2398L22.2773 27.8146L28.2173 24.4346L28.981 24L28.2173 23.5654L22.2773 20.1854L21.53 19.7602V20.62V27.38ZM34.7466 18.6277L34.8322 18.9518C35.0041 19.781 35.1002 20.9287 35.1519 21.943C35.1809 22.5127 35.1955 23.0279 35.2028 23.4007C35.2064 23.587 35.2082 23.7374 35.2091 23.841C35.2096 23.8928 35.2098 23.9329 35.2099 23.9599L35.21 23.9903L35.21 23.9978L35.21 23.9996V24V24V24V24.0004L35.21 24.0022L35.21 24.0097L35.2099 24.0401C35.2098 24.067 35.2095 24.1071 35.2091 24.1589C35.2082 24.2624 35.2063 24.4129 35.2026 24.5991C35.1952 24.9718 35.1803 25.4869 35.1507 26.0565C35.0906 27.2108 34.9718 28.537 34.7472 29.3698L34.7466 29.3723C34.6415 29.7699 34.4339 30.1331 34.1445 30.4254C33.8553 30.7174 33.4946 30.9285 33.0984 31.0376C32.7082 31.1433 31.9783 31.2311 31.0605 31.2989C30.1563 31.3656 29.111 31.4103 28.1162 31.4402C27.1223 31.4701 26.1828 31.4851 25.4916 31.4925C25.1461 31.4963 24.8629 31.4981 24.6662 31.4991C24.5678 31.4995 24.4911 31.4998 24.4391 31.4999L24.3799 31.5L24.3649 31.5L24.3612 31.5H24.3603H24.36L24.36 32L24.36 31.5H24.3597H24.3588L24.3551 31.5L24.3401 31.5L24.2808 31.4999C24.2287 31.4998 24.1519 31.4995 24.0534 31.4991C23.8564 31.4981 23.5728 31.4963 23.2268 31.4925C22.5347 31.4851 21.594 31.4701 20.5988 31.4402C19.6027 31.4103 18.5561 31.3656 17.651 31.2989C16.7316 31.2311 16.0008 31.1432 15.6109 31.0374L15.6106 31.0374C15.2125 30.9296 14.8498 30.7189 14.5588 30.4266C14.268 30.1343 14.0591 29.7705 13.9533 29.372C13.7332 28.5381 13.6169 27.2111 13.5581 26.057C13.5291 25.4873 13.5145 24.9721 13.5072 24.5993C13.5036 24.413 13.5018 24.2626 13.5009 24.159C13.5004 24.1072 13.5002 24.0671 13.5001 24.0401L13.5 24.0097L13.5 24.0022L13.5 24.0004L13.5 24V24V24V24L13.5 23.9996L13.5 23.9978L13.5 23.9903L13.5001 23.9599C13.5002 23.933 13.5005 23.8929 13.5009 23.8411C13.5018 23.7376 13.5037 23.5871 13.5074 23.4009C13.5148 23.0282 13.5297 22.5131 13.5593 21.9435C13.6194 20.7892 13.7382 19.463 13.9628 18.6302L13.9628 18.6302L13.9634 18.6277C14.0685 18.2301 14.2761 17.8669 14.5655 17.5746C14.8547 17.2826 15.2154 17.0714 15.6117 16.9623C16.0019 16.8567 16.7317 16.7689 17.6495 16.7011C18.5537 16.6344 19.599 16.5897 20.5938 16.5598C21.5877 16.5299 22.5272 16.5149 23.2184 16.5075C23.5639 16.5037 23.8471 16.5019 24.0438 16.5009C24.1422 16.5005 24.2189 16.5002 24.2709 16.5001L24.3301 16.5L24.3451 16.5L24.3488 16.5L24.3497 16.5H24.35L24.35 16L24.35 16.5H24.3503L24.3512 16.5L24.3549 16.5L24.3699 16.5L24.4292 16.5001C24.4813 16.5002 24.5581 16.5005 24.6566 16.5009C24.8536 16.5019 25.1372 16.5037 25.4832 16.5075C26.1753 16.5149 27.116 16.5299 28.1112 16.5598C29.1073 16.5897 30.1539 16.6344 31.059 16.7011C31.9778 16.7689 32.7082 16.8567 33.0984 16.9624C33.4946 17.0715 33.8553 17.2826 34.1445 17.5746C34.4339 17.8669 34.6415 18.2301 34.7466 18.6277Z" fill="#9D8665" stroke="black"/>
<defs>
<filter id="filter0_d" x="0" y="0" width="48" height="48" filterUnits="userSpaceOnUse" color-interpolation-filters="sRGB">
<feFlood flood-opacity="0" result="BackgroundImageFix"/>
<feColorMatrix in="SourceAlpha" type="matrix" values="0 0 0 0 0 0 0 0 0 0 0 0 0 0 0 0 0 0 127 0" result="hardAlpha"/>
<feOffset/>
<feColorMatrix type="matrix" values="0 0 0 0 0.4 0 0 0 0 0.4 0 0 0 0 0.4 0 0 0 1 0"/>
<feBlend mode="normal" in2="BackgroundImageFix" result="effect1_dropShadow"/>
<feBlend mode="normal" in="SourceGraphic" in2="effect1_dropShadow" result="shape"/>
</filter>
</defs>
</svg>
